<?xml version="1.0" encoding="UTF-8"?>
<svg xmlns="http://www.w3.org/2000/svg" xmlns:xlink="http://www.w3.org/1999/xlink" width="2100" height="2100" viewBox="0 0 2100 2100">
<path fill-rule="nonzero" fill="rgb(100%, 66.601562%, 93.359375%)" fill-opacity="1" d="M 40.597656 1909.800781 L 2040 1909.800781 C 2040 1909.800781 2162.871094 1573.070312 1930.089844 1169.867188 C 1697.300781 766.671875 1208.839844 947.46875 1063.511719 1199.195312 C 918.175781 1450.917969 793.089844 1557.152344 363.230469 1441.972656 C -66.628906 1326.789062 40.597656 1909.800781 40.597656 1909.800781 "/>
<path fill-rule="nonzero" fill="rgb(92.1875%, 55.271912%, 43.530273%)" fill-opacity="1" d="M 1221.640625 969.308594 L 1204.691406 961.300781 C 1204.691406 961.300781 1192.488281 953.839844 1185.289062 953.648438 C 1178.089844 953.460938 1162.941406 955.921875 1162.941406 955.921875 L 1164.261719 961.21875 L 1221.640625 969.308594 "/>
<path fill-rule="nonzero" fill="rgb(12.939453%, 12.939453%, 47.068787%)" fill-opacity="1" d="M 1116.441406 898.070312 C 1074.21875 898.070312 1052.988281 936.53125 1052.988281 936.53125 L 1029.550781 976.351562 C 1029.539062 976.378906 1029.519531 976.410156 1029.5 976.429688 L 538.960938 1825.964844 L 203.941406 1632.566406 C 201.355469 1631.074219 198.285156 1630.671875 195.402344 1631.441406 C 192.519531 1632.214844 190.0625 1634.101562 188.570312 1636.6875 C 187.078125 1639.269531 186.675781 1642.339844 187.449219 1645.222656 C 188.21875 1648.105469 190.105469 1650.5625 192.691406 1652.054688 L 537.453125 1851.070312 C 542.835938 1854.175781 549.710938 1852.335938 552.816406 1846.960938 L 1048.960938 987.730469 L 1072.5 947.75 C 1072.539062 947.679688 1072.578125 947.621094 1072.621094 947.550781 C 1072.621094 947.550781 1088.148438 920.570312 1116.441406 920.570312 C 1141.128906 920.570312 1155.191406 946.050781 1157.570312 950.679688 L 1157.570312 1081.539062 C 1157.570312 1087.761719 1162.601562 1092.789062 1168.820312 1092.789062 C 1175.03125 1092.789062 1180.070312 1087.761719 1180.070312 1081.539062 L 1180.070312 947.859375 C 1180.070312 946.28125 1179.730469 944.71875 1179.089844 943.28125 C 1179.089844 943.28125 1159.890625 898.070312 1116.441406 898.070312 "/>
<path fill-rule="nonzero" fill="rgb(80.076599%, 80.076599%, 80.076599%)" fill-opacity="1" d="M 1301.171875 1890.554688 L 1147.730469 1890.554688 L 1121.820312 1845.664062 C 1103.109375 1854.152344 1082.320312 1863.214844 1071.609375 1869.402344 C 1038.960938 1888.25 1066.5 1909.800781 1066.5 1909.800781 L 1301.171875 1909.800781 L 1301.171875 1890.554688 "/>
<path fill-rule="nonzero" fill="rgb(12.939453%, 12.939453%, 47.068787%)" fill-opacity="1" d="M 1200.109375 1811.21875 C 1200.109375 1811.21875 1160.109375 1828.296875 1121.820312 1845.664062 L 1147.730469 1890.554688 L 1301.171875 1890.554688 L 1301.171875 1813.523438 L 1200.109375 1811.21875 "/>
<path fill-rule="nonzero" fill="rgb(8.616638%, 8.616638%, 31.37207%)" fill-opacity="1" d="M 1333.589844 1138.511719 L 1178.410156 1450.703125 L 1180.511719 1805.414062 C 1180.511719 1805.414062 1198.710938 1820.046875 1236.558594 1822.316406 C 1274.398438 1824.585938 1304.410156 1816.777344 1304.410156 1816.777344 L 1315.140625 1507.640625 L 1525.539062 1300.472656 L 1418.851562 1153.878906 L 1333.589844 1138.511719 "/>
<path fill-rule="nonzero" fill="rgb(80.076599%, 80.076599%, 80.076599%)" fill-opacity="1" d="M 1919.480469 1694.296875 L 1878.738281 1846.316406 L 1816.949219 1847.472656 C 1816.949219 1847.472656 1778.910156 1865.441406 1770.839844 1895.566406 C 1762.769531 1925.691406 1786.539062 1934.394531 1786.539062 1934.394531 L 1891.109375 1885.871094 L 1938.738281 1704.992188 L 1919.480469 1694.296875 "/>
<path fill-rule="nonzero" fill="rgb(12.939453%, 12.939453%, 47.068787%)" fill-opacity="1" d="M 1852.699219 1657.214844 L 1813.390625 1740.765625 L 1816.941406 1847.472656 L 1878.730469 1846.316406 L 1919.460938 1694.296875 L 1852.699219 1657.214844 "/>
<path fill-rule="nonzero" fill="rgb(12.939453%, 12.939453%, 47.068787%)" fill-opacity="1" d="M 1381.089844 1153.878906 L 1488.390625 1542.417969 L 1772.691406 1770.160156 C 1772.691406 1770.160156 1798.941406 1771.972656 1827.679688 1733.664062 C 1856.429688 1695.359375 1852.699219 1657.214844 1852.699219 1657.214844 L 1649.519531 1472.144531 L 1617.261719 1146.566406 L 1381.089844 1153.878906 "/>
<path fill-rule="nonzero" fill="rgb(17.651367%, 63.476562%, 98.826599%)" fill-opacity="1" d="M 1617.261719 819.351562 L 1617.261719 1146.566406 C 1617.261719 1146.566406 1572.410156 1171.925781 1474.839844 1171.925781 C 1377.28125 1171.925781 1333.589844 1138.511719 1333.589844 1138.511719 C 1333.589844 1138.511719 1340.128906 882.941406 1347.421875 760.410156 C 1354.699219 637.878906 1399.648438 591.980469 1399.648438 591.980469 L 1514.269531 551.171875 C 1514.269531 551.171875 1575.460938 577.640625 1595.710938 650.671875 C 1615.949219 723.699219 1617.261719 819.351562 1617.261719 819.351562 "/>
<path fill-rule="nonzero" fill="rgb(12.939453%, 12.939453%, 47.068787%)" fill-opacity="1" d="M 1514.429688 550.101562 L 1422.820312 632.058594 L 1411.671875 613.609375 L 1399.648438 591.980469 L 1503.039062 539.171875 L 1514.429688 550.101562 "/>
<path fill-rule="nonzero" fill="rgb(98.826599%, 76.171875%, 60.742188%)" fill-opacity="1" d="M 1136.898438 961.320312 C 1132.261719 967.570312 1126.601562 979.480469 1129.269531 998.449219 C 1133.53125 1028.808594 1134.988281 1037.320312 1142.648438 1047.550781 C 1150.320312 1057.78125 1187.71875 1045.101562 1198.679688 1041.460938 C 1206.089844 1038.988281 1215.378906 1023.339844 1220.839844 1013.191406 C 1217.320312 1009.890625 1221.640625 969.308594 1221.640625 969.308594 C 1221.640625 969.308594 1210.421875 966.800781 1188.28125 960.871094 C 1166.128906 954.929688 1142.078125 955.859375 1142.078125 955.859375 C 1142.078125 955.859375 1139.679688 957.578125 1136.890625 961.328125 "/>
<path fill-rule="nonzero" fill="rgb(2.352905%, 40.380859%, 97.65625%)" fill-opacity="1" d="M 1419.511719 690.679688 L 1413.890625 870.851562 L 1204.691406 961.300781 C 1204.691406 961.300781 1198.398438 974.289062 1206.941406 996.628906 C 1215.488281 1018.96875 1230.808594 1022.898438 1230.808594 1022.898438 L 1503.648438 925.21875 L 1540.351562 696.300781 C 1540.351562 696.300781 1542.269531 636.289062 1484.828125 636.289062 C 1427.359375 636.289062 1419.511719 690.679688 1419.511719 690.679688 "/>
<path fill-rule="nonzero" fill="rgb(94.139099%, 48.242188%, 18.041992%)" fill-opacity="1" d="M 310.0625 1273.898438 L 128.234375 1588.832031 L 538.960938 1825.964844 L 720.789062 1511.03125 L 310.0625 1273.898438 "/>
<path fill-rule="nonzero" fill="rgb(90.234375%, 90.234375%, 90.234375%)" fill-opacity="1" d="M 326.421875 1332.992188 L 287.332031 1400.691406 L 375.625 1451.664062 L 414.710938 1383.964844 L 326.421875 1332.992188 "/>
<path fill-rule="nonzero" fill="rgb(93.359375%, 41.184998%, 6.665039%)" fill-opacity="1" d="M 505.074219 1386.636719 C 504.199219 1386.128906 503.089844 1386.425781 502.585938 1387.300781 L 463.691406 1454.664062 C 463.1875 1455.539062 463.484375 1456.648438 464.359375 1457.152344 L 501.101562 1478.367188 C 501.976562 1478.871094 503.085938 1478.574219 503.589844 1477.699219 L 542.480469 1410.335938 C 542.988281 1409.464844 542.691406 1408.351562 541.816406 1407.847656 L 505.074219 1386.636719 "/>
<path fill-rule="nonzero" fill="rgb(12.939453%, 12.939453%, 47.068787%)" fill-opacity="1" d="M 538.003906 1813.210938 C 511.292969 1813.210938 489.613281 1834.9375 489.613281 1861.695312 C 489.613281 1888.457031 511.324219 1910.183594 538.101562 1910.183594 C 564.882812 1910.183594 586.589844 1887.800781 586.589844 1861.695312 C 586.589844 1835.589844 564.714844 1813.210938 538.003906 1813.210938 "/>
<path fill-rule="nonzero" fill="rgb(80.076599%, 80.076599%, 80.076599%)" fill-opacity="1" d="M 538.058594 1839.460938 C 525.808594 1839.460938 515.863281 1849.421875 515.863281 1861.695312 C 515.863281 1873.96875 525.820312 1883.933594 538.101562 1883.933594 C 550.386719 1883.933594 560.339844 1873.667969 560.339844 1861.695312 C 560.339844 1849.722656 550.308594 1839.460938 538.058594 1839.460938 "/>
<path fill-rule="nonzero" fill="rgb(94.53125%, 52.929688%, 25.488281%)" fill-opacity="1" d="M 491.890625 958.960938 L 310.0625 1273.898438 L 720.789062 1511.03125 L 902.613281 1196.097656 L 491.890625 958.960938 "/>
<path fill-rule="nonzero" fill="rgb(90.234375%, 90.234375%, 90.234375%)" fill-opacity="1" d="M 777.59375 1170.199219 L 744.859375 1226.898438 L 818.804688 1269.589844 L 851.539062 1212.890625 L 777.59375 1170.199219 "/>
<path fill-rule="nonzero" fill="rgb(93.359375%, 41.575623%, 7.446289%)" fill-opacity="1" d="M 686.902344 1071.699219 C 686.027344 1071.199219 684.914062 1071.488281 684.410156 1072.371094 L 645.519531 1139.730469 C 645.015625 1140.605469 645.3125 1141.714844 646.1875 1142.21875 L 682.929688 1163.433594 C 683.804688 1163.9375 684.914062 1163.640625 685.417969 1162.765625 L 724.308594 1095.398438 C 724.8125 1094.53125 724.519531 1093.421875 723.644531 1092.910156 L 686.902344 1071.699219 "/>
<path fill-rule="nonzero" fill="rgb(94.139099%, 48.242188%, 18.041992%)" fill-opacity="1" d="M 750.359375 828.890625 L 629.417969 1038.371094 L 902.613281 1196.097656 L 1023.558594 986.621094 L 750.359375 828.890625 "/>
<path fill-rule="nonzero" fill="rgb(90.234375%, 90.234375%, 90.234375%)" fill-opacity="1" d="M 761.242188 868.191406 L 735.242188 913.21875 L 793.972656 947.128906 L 819.96875 902.101562 L 761.242188 868.191406 "/>
<path fill-rule="nonzero" fill="rgb(93.359375%, 41.184998%, 6.665039%)" fill-opacity="1" d="M 880.074219 903.871094 C 879.492188 903.539062 878.753906 903.738281 878.417969 904.320312 L 852.550781 949.121094 C 852.214844 949.710938 852.410156 950.441406 852.992188 950.78125 L 877.433594 964.890625 C 878.015625 965.230469 878.753906 965.03125 879.089844 964.449219 L 904.957031 919.640625 C 905.292969 919.058594 905.09375 918.320312 904.511719 917.980469 L 880.074219 903.871094 "/>
<path fill-rule="nonzero" fill="rgb(92.1875%, 55.271912%, 43.530273%)" fill-opacity="1" d="M 1399.648438 591.980469 L 1399.648438 546.460938 L 1495.828125 520.691406 L 1503.039062 539.171875 L 1399.648438 591.980469 "/>
<path fill-rule="nonzero" fill="rgb(98.826599%, 76.171875%, 60.742188%)" fill-opacity="1" d="M 1426.96875 276.078125 C 1368.171875 276.078125 1320.828125 323.421875 1320.828125 382.210938 L 1320.828125 452.339844 C 1320.828125 511.128906 1333.109375 558.46875 1391.910156 558.46875 L 1410.859375 558.46875 C 1469.648438 558.46875 1529.269531 510.21875 1539.570312 452.339844 L 1552.050781 382.210938 C 1562.351562 324.328125 1504.71875 276.078125 1445.921875 276.078125 L 1426.96875 276.078125 "/>
<path fill-rule="nonzero" fill="rgb(1.177979%, 50.584412%, 88.28125%)" fill-opacity="1" d="M 1316.71875 370.691406 L 1240.210938 370.691406 C 1234.371094 370.691406 1229.671875 375.410156 1229.671875 381.25 C 1229.671875 387.089844 1234.371094 391.78125 1240.210938 391.78125 L 1550.339844 391.78125 L 1552.078125 382.050781 C 1562.558594 323.21875 1509.46875 270.558594 1436.128906 270.558594 C 1362.789062 270.558594 1322.359375 316.320312 1316.71875 370.691406 "/>
<path fill-rule="nonzero" fill="rgb(10.205078%, 10.205078%, 36.863708%)" fill-opacity="1" d="M 1401.589844 391.78125 L 1425.050781 424.820312 C 1430.359375 414.851562 1439.339844 409.300781 1448.171875 410.53125 C 1460.871094 412.308594 1469.261719 427.378906 1466.921875 444.191406 C 1465.609375 453.488281 1461.171875 461.828125 1454.851562 466.839844 L 1495.949219 524.75 C 1495.949219 524.75 1522.769531 503.789062 1536.78125 468.488281 C 1550.800781 433.191406 1550.339844 391.78125 1550.339844 391.78125 L 1401.589844 391.78125 "/>
</svg>
